<svg width="94" height="75" viewBox="0 0 94 75" fill="none" xmlns="http://www.w3.org/2000/svg">
<path d="M86.4219 33.1328C83.4678 31.1652 80.0858 30.8127 76.9004 32.1433L74.6375 33.0825C73.6694 33.4861 72.6676 33.7439 71.6559 33.882C71.9397 29.9002 75.2348 26.7371 79.2883 26.7371C80.1375 26.7371 80.8256 26.0489 80.8256 25.1998C80.8256 24.3506 80.1375 23.6625 79.2883 23.6625C76.6035 23.6625 74.1506 24.6573 72.2639 26.2892C72.0037 24.5497 71.1935 22.8673 69.8729 21.5468C67.6147 19.2871 64.3041 18.473 61.4371 19.4709C60.9939 19.6257 60.646 19.9736 60.4911 20.4169C59.4916 23.2818 60.3064 26.5937 62.567 28.8527C64.1845 30.4716 66.3428 31.3497 68.4913 31.3497C68.6584 31.3497 68.8231 31.3192 68.9895 31.3085C68.74 32.1325 68.5966 33 68.5523 33.8941C67.5124 33.759 66.4816 33.4958 65.4869 33.0808L63.2355 32.1469C61.6097 31.4603 59.9023 31.2177 58.2093 31.4321C58.0232 30.4303 57.9171 29.4186 57.9171 28.4032V25.1508C57.9171 21.0608 56.2982 17.2078 53.357 14.2989C50.8255 11.8086 47.5761 10.2897 44.0712 9.91878C44.7495 6.36878 47.8683 3.67405 51.6128 3.67405C52.462 3.67405 53.1502 2.98589 53.1502 2.13673C53.1502 1.28757 52.462 0.599403 51.6128 0.599403C46.1769 0.599403 41.6808 4.6537 40.9622 9.89589C33.0673 10.61 26.8601 17.1752 26.8601 25.1508V27.2152C25.3884 26.9047 23.896 26.7369 22.4007 26.7369C20.1462 26.7369 17.9734 27.0886 15.9294 27.7348C15.6456 26.7331 15.1696 25.8221 14.534 25.0301C15.6296 24.7753 16.6725 24.2244 17.511 23.3852C19.1566 21.7403 19.7471 19.3241 19.0163 17.229C18.8614 16.7865 18.5135 16.4385 18.071 16.2837C15.9782 15.5543 13.5604 16.1433 11.9147 17.789C10.6933 19.0097 10.0562 20.6561 10.1066 22.2804C9.6076 22.1781 9.09186 22.124 8.56315 22.124C7.71399 22.124 7.02583 22.8121 7.02583 23.6613C7.02583 24.5104 7.71399 25.1986 8.56315 25.1986C10.7901 25.1986 12.6532 26.7855 13.0821 28.8875C5.87311 32.3703 0.875061 39.7334 0.875061 48.2615C0.875061 60.1306 10.5309 69.7869 22.4005 69.7869C24.1735 69.7869 25.9321 69.5534 27.6464 69.1178C31.3512 72.1672 36.0311 74.1074 41.1749 74.3676C41.5853 74.3897 41.9927 74.3996 42.4001 74.3996C47.9529 74.3996 53.2019 72.4405 57.3507 68.9248C59.8509 70.5079 62.5792 71.3198 65.3494 71.3198C66.7654 71.3198 68.1921 71.1084 69.6042 70.6797L70.0635 70.5294L70.5571 70.6911C75.1226 72.0659 79.8505 71.1717 83.8841 68.1749C88.2337 64.921 91.4136 59.421 92.6083 53.0802C92.9516 51.23 93.1264 49.3097 93.1264 47.3704C93.1264 41.3433 90.5576 35.8874 86.4224 33.1331L86.4219 33.1328ZM14.0899 19.9629C14.6918 19.3609 15.4769 19.0512 16.2535 19.0474C16.2627 19.8179 15.9392 20.6091 15.338 21.211C14.7361 21.813 13.9357 22.1357 13.1743 22.1266C13.1652 21.3568 13.4887 20.5648 14.0899 19.9629ZM64.7422 26.6783C63.5116 25.4477 62.9485 23.7518 63.2049 22.183C64.7766 21.9305 66.4695 22.4905 67.7002 23.7203C68.9308 24.951 69.4939 26.6469 69.2375 28.2156C67.6666 28.4743 65.9721 27.9097 64.7422 26.6783ZM3.95119 48.2623C3.95119 38.0893 12.2283 29.8121 22.4014 29.8121C23.8563 29.8121 25.3098 29.9853 26.7379 30.3279C26.7356 30.3454 26.7341 30.3622 26.7318 30.3797C26.5724 31.7713 26.2298 33.1424 25.7232 34.4706C25.6973 34.5385 25.6744 34.6071 25.6477 34.6743C25.3944 35.3144 25.1014 35.943 24.7703 36.558C24.7382 36.6182 24.7031 36.6777 24.6703 36.7372C24.3232 37.3644 23.9432 37.9801 23.5168 38.5752C20.7115 42.5174 19.2627 47.1338 19.326 51.9258C19.3344 52.6185 19.3801 53.3082 19.4541 53.9933C19.5083 54.5144 19.5976 55.0248 19.6868 55.5352C19.7105 55.668 19.725 55.8015 19.7509 55.9335C20.5276 59.9321 22.3732 63.5591 24.9831 66.5276C24.1294 66.6497 23.2665 66.7123 22.4013 66.7123C12.2283 66.7123 3.95111 58.4359 3.95111 48.2621L3.95119 48.2623ZM41.3301 71.2975C34.2645 70.9397 28.0565 66.7412 24.8063 60.8611C24.7727 60.7993 24.7407 60.7368 24.7079 60.675C24.4599 60.2149 24.2295 59.7442 24.0189 59.2651C23.9487 59.1033 23.8869 58.9378 23.8206 58.7737C23.6573 58.3732 23.4994 57.9696 23.3628 57.5576C23.272 57.2806 23.1995 56.9984 23.1217 56.7176C23.0309 56.3949 22.9333 56.0737 22.8592 55.7456C22.7707 55.3473 22.7097 54.943 22.6472 54.5394C22.6105 54.3075 22.5594 54.0786 22.5319 53.8444C22.4656 53.2851 22.4343 52.7205 22.419 52.1552C22.4167 52.0675 22.4038 51.9813 22.4022 51.8928C22.3488 47.7416 23.6016 43.7553 26.0271 40.364C26.5817 39.5866 27.0685 38.7787 27.5087 37.9539C27.5468 37.8822 27.5903 37.8127 27.6277 37.741C27.7948 37.4183 27.9451 37.0895 28.0946 36.7607C28.1602 36.6172 28.2304 36.4753 28.2922 36.3311C28.4234 36.0244 28.5394 35.7131 28.6554 35.4019C28.7179 35.2333 28.7843 35.0662 28.8423 34.8961C28.9483 34.5855 29.0406 34.2727 29.1315 33.9584C29.181 33.7875 29.2322 33.6174 29.2772 33.4457C29.3634 33.1161 29.4366 32.7835 29.5053 32.4501C29.5358 32.2998 29.5686 32.1502 29.5961 31.9992C29.664 31.6276 29.7189 31.2538 29.7662 30.8784C29.7784 30.78 29.7906 30.6816 29.8013 30.5831C29.8501 30.1384 29.8837 29.6913 29.902 29.2434C29.902 29.2411 29.902 29.2396 29.9028 29.2373V29.2358C29.9142 28.9581 29.9364 28.6804 29.9364 28.4019V25.1496C29.9356 18.396 35.5219 12.8998 42.3891 12.8998C45.7178 12.8998 48.8465 14.1754 51.1973 16.4886C53.5479 18.8124 54.8418 21.8894 54.8418 25.1511V28.4035C54.8418 30.7343 55.2744 33.0466 56.0839 35.2654C56.0931 35.2913 56.1022 35.3173 56.1121 35.3432C56.299 35.8498 56.5058 36.3503 56.7332 36.8454C56.7545 36.8927 56.7744 36.94 56.7965 36.9873C57.2924 38.0455 57.8699 39.0778 58.5459 40.068L58.6786 40.2595L58.6817 40.2572L58.7862 40.4067C58.787 40.4075 58.787 40.4083 58.7877 40.409L58.7855 40.4113C60.7401 43.1586 61.9149 46.315 62.2583 49.6322C62.3277 50.3013 62.375 50.975 62.375 51.6562C62.3743 56.4017 60.6432 60.968 57.4961 64.5224C53.4395 69.1443 47.5612 71.6086 41.3301 71.2975ZM89.586 52.5139C88.5323 58.1031 85.7834 62.9135 82.0465 65.709C78.7711 68.1443 75.1061 68.8492 71.4797 67.7574L70.5421 67.4507C70.3864 67.3996 70.2254 67.3737 70.0637 67.3737C69.902 67.3737 69.741 67.3988 69.5853 67.45L68.679 67.7467C65.6059 68.6814 62.5174 68.3258 59.661 66.7274C59.7098 66.6725 59.7587 66.6176 59.8067 66.5626C63.4468 62.4459 65.4509 57.1533 65.4509 51.6601V51.6563V51.6532C65.4509 50.5935 65.3677 49.546 65.2227 48.5122C64.7268 44.9523 63.3986 41.5786 61.2897 38.6214L61.0937 38.3414C60.6916 37.7501 60.333 37.1436 60.0065 36.5279C59.9752 36.4691 59.9424 36.4104 59.9119 36.3517C59.5868 35.7222 59.2969 35.0836 59.0528 34.4336C60.0538 34.3795 61.0592 34.5664 62.0473 34.9837L64.3055 35.9198C68.0173 37.4671 72.1065 37.4671 75.8182 35.9214L78.0819 34.9822C80.9139 33.8004 83.2524 34.7167 84.7172 35.6917C88.0079 37.8829 90.051 42.3583 90.051 47.37C90.051 49.121 89.8946 50.8528 89.5856 52.5138L89.586 52.5139Z" fill="black"/>
<path d="M78.5196 37.5C77.6704 37.5 76.9822 38.1882 76.9822 39.0373C76.9822 39.8865 77.6704 40.5746 78.5196 40.5746C81.0631 40.5746 83.1323 42.6438 83.1323 45.1873C83.1323 46.0365 83.8204 46.7247 84.6696 46.7247C85.5187 46.7247 86.2069 46.0365 86.2069 45.1873C86.2069 40.9485 82.7584 37.5 78.5196 37.5Z" fill="black"/>
<path d="M42.3868 39.0371C36.2848 39.0371 32.393 48.6838 32.393 53.7291C32.393 59.1918 36.876 63.6373 42.3868 63.6373C47.8975 63.6373 52.3805 59.1924 52.3805 53.7291C52.3805 48.6838 48.4887 39.0371 42.3868 39.0371ZM42.3868 60.5625C38.5713 60.5625 35.4676 57.4971 35.4676 53.7297C35.4676 49.4633 38.8864 42.1125 42.3868 42.1125C45.8864 42.1125 49.3059 49.4627 49.3059 53.7291C49.3051 57.498 46.2022 60.5625 42.3868 60.5625Z" fill="black"/>
<path d="M17.7872 34.4238C13.5483 34.4238 10.0999 37.8731 10.0999 42.1111C10.0999 42.9603 10.788 43.6485 11.6372 43.6485C12.4863 43.6485 13.1745 42.9603 13.1745 42.1111C13.1745 39.5676 15.2436 37.4984 17.7872 37.4984C18.6364 37.4984 19.3245 36.8103 19.3245 35.9611C19.3245 35.112 18.6363 34.4238 17.7872 34.4238Z" fill="black"/>
</svg>
